<svg width="40" height="40" viewBox="0 0 40 40" fill="none" xmlns="http://www.w3.org/2000/svg">
<path d="M10 16.6668V13.3335C10 7.81683 11.6667 3.3335 20 3.3335C28.3333 3.3335 30 7.81683 30 13.3335V16.6668" stroke="white" stroke-width="3" stroke-linecap="round" stroke-linejoin="round"/>
<path d="M19.9987 30.8333C22.2999 30.8333 24.1654 28.9679 24.1654 26.6667C24.1654 24.3655 22.2999 22.5 19.9987 22.5C17.6975 22.5 15.832 24.3655 15.832 26.6667C15.832 28.9679 17.6975 30.8333 19.9987 30.8333Z" stroke="white" stroke-width="3" stroke-linecap="round" stroke-linejoin="round"/>
<path d="M28.332 36.6665H11.6654C4.9987 36.6665 3.33203 34.9998 3.33203 28.3332V24.9998C3.33203 18.3332 4.9987 16.6665 11.6654 16.6665H28.332C34.9987 16.6665 36.6654 18.3332 36.6654 24.9998V28.3332C36.6654 34.9998 34.9987 36.6665 28.332 36.6665Z" stroke="white" stroke-width="3" stroke-linecap="round" stroke-linejoin="round"/>
</svg>
