<svg width="20" height="20" viewBox="0 0 20 20" fill="none" xmlns="http://www.w3.org/2000/svg">
<path d="M1.66699 1.66663H3.117C4.017 1.66663 4.72533 2.44163 4.65033 3.33329L3.95866 11.6333C3.84199 12.9916 4.91699 14.1583 6.28365 14.1583H15.1587C16.3587 14.1583 17.4087 13.175 17.5003 11.9833L17.9503 5.7333C18.0503 4.34996 17.0003 3.22496 15.6087 3.22496H4.85033" stroke="#007B5E" stroke-width="1.5" stroke-miterlimit="10" stroke-linecap="round" stroke-linejoin="round"/>
<path d="M13.5417 18.3333C14.117 18.3333 14.5833 17.867 14.5833 17.2917C14.5833 16.7164 14.117 16.25 13.5417 16.25C12.9664 16.25 12.5 16.7164 12.5 17.2917C12.5 17.867 12.9664 18.3333 13.5417 18.3333Z" stroke="#007B5E" stroke-width="1.5" stroke-miterlimit="10" stroke-linecap="round" stroke-linejoin="round"/>
<path d="M6.87467 18.3333C7.44997 18.3333 7.91634 17.867 7.91634 17.2917C7.91634 16.7164 7.44997 16.25 6.87467 16.25C6.29938 16.25 5.83301 16.7164 5.83301 17.2917C5.83301 17.867 6.29938 18.3333 6.87467 18.3333Z" stroke="#007B5E" stroke-width="1.5" stroke-miterlimit="10" stroke-linecap="round" stroke-linejoin="round"/>
<path d="M7.5 6.66663H17.5" stroke="#007B5E" stroke-width="1.5" stroke-miterlimit="10" stroke-linecap="round" stroke-linejoin="round"/>
</svg>
